<?xml version="1.0" encoding="UTF-8" standalone="no"?>
<!-- Created with Inkscape (http://www.inkscape.org/) -->

<svg
   xmlns:dc="http://purl.org/dc/elements/1.1/"
   xmlns:cc="http://creativecommons.org/ns#"
   xmlns:rdf="http://www.w3.org/1999/02/22-rdf-syntax-ns#"
   xmlns:svg="http://www.w3.org/2000/svg"
   xmlns="http://www.w3.org/2000/svg"
   xmlns:xlink="http://www.w3.org/1999/xlink"
   xmlns:sodipodi="http://sodipodi.sourceforge.net/DTD/sodipodi-0.dtd"
   xmlns:inkscape="http://www.inkscape.org/namespaces/inkscape"
   id="svg9986"
   sodipodi:docname="fishbowl-empty.svg"
   viewBox="0 0 447.12 404.88"
   version="1.1"
   inkscape:version="0.48.4 r9939"
   width="128px"
   height="128px">
  <defs
     id="defs9988">
    <radialGradient
       id="radialGradient10612"
       fx="404.47"
       fy="535.61"
       gradientUnits="userSpaceOnUse"
       cy="464.16"
       cx="403.1"
       gradientTransform="matrix(1 0 0 .16829 0 386.05)"
       r="106.33"
       inkscape:collect="always">
      <stop
         id="stop10559"
         style="stop-color:#9696ff"
         offset="0" />
      <stop
         id="stop10561"
         style="stop-color:#9696ff;stop-opacity:0"
         offset="1" />
    </radialGradient>
    <linearGradient
       id="linearGradient10632"
       y2="237.97"
       gradientUnits="userSpaceOnUse"
       x2="160.53"
       y1="260.5"
       x1="30.976"
       inkscape:collect="always">
      <stop
         id="stop10628"
         style="stop-color:#ebe9ff"
         offset="0" />
      <stop
         id="stop10630"
         style="stop-color:#ebe9ff;stop-opacity:0"
         offset="1" />
    </linearGradient>
    <linearGradient
       inkscape:collect="always"
       x1="324.08"
       y1="64.653"
       gradientTransform="matrix(0.26858,0,0,0.26858,-56.254,82.436)"
       x2="311.47"
       gradientUnits="userSpaceOnUse"
       y2="111.72"
       id="linearGradient3953">
      <stop
         offset="0"
         style="stop-color:#ffffff"
         id="stop4034" />
      <stop
         offset="1"
         style="stop-color:#ffffff;stop-opacity:0"
         id="stop4036" />
    </linearGradient>
    <linearGradient
       inkscape:collect="always"
       x1="340.11"
       y1="193.29"
       gradientTransform="matrix(0.14592,0,0,0.11771,12.444,103.56)"
       x2="340.11"
       gradientUnits="userSpaceOnUse"
       xlink:href="#linearGradient3984"
       y2="81.848"
       id="linearGradient3951" />
    <linearGradient
       inkscape:collect="always"
       x1="400.93"
       y1="81.444"
       gradientTransform="matrix(0.28889,0,0,0.30378,-65.593,77.981)"
       x2="400.93"
       gradientUnits="userSpaceOnUse"
       xlink:href="#linearGradient3984"
       y2="128.09"
       id="linearGradient3949" />
    <linearGradient
       inkscape:collect="always"
       x1="336.92"
       y1="78.875"
       gradientTransform="matrix(0.42536,0,0,0.22889,-96.309,92.036)"
       x2="339.85"
       gradientUnits="userSpaceOnUse"
       xlink:href="#linearGradient3970"
       y2="140.14"
       id="linearGradient3947" />
    <linearGradient
       inkscape:collect="always"
       x1="387.25"
       y1="98.949"
       gradientTransform="matrix(0.26858,0,0,0.26858,-57.705,82.242)"
       x2="374.12"
       gradientUnits="userSpaceOnUse"
       xlink:href="#linearGradient3917"
       y2="68.866"
       id="linearGradient3945" />
    <linearGradient
       inkscape:collect="always"
       x1="420.07"
       y1="155.83"
       gradientTransform="matrix(0.26858,0,0,0.26858,-57.852,81.118)"
       x2="391.63"
       gradientUnits="userSpaceOnUse"
       xlink:href="#linearGradient3917"
       y2="174.43"
       id="linearGradient3943" />
    <radialGradient
       inkscape:collect="always"
       r="15.965"
       gradientTransform="matrix(0.52302,-0.17452,0.07329,0.21965,-160.75,151.56)"
       cx="357.43"
       cy="159.97"
       gradientUnits="userSpaceOnUse"
       xlink:href="#linearGradient3917"
       id="radialGradient3941" />
    <radialGradient
       inkscape:collect="always"
       r="35.443"
       gradientTransform="matrix(0.54185,-0.013525,0.0087772,0.35165,-138.2,75.9)"
       cx="290.79"
       cy="123.31"
       gradientUnits="userSpaceOnUse"
       xlink:href="#linearGradient3970"
       id="radialGradient3939" />
    <filter
       inkscape:collect="always"
       id="filter4475">
      <feGaussianBlur
         inkscape:collect="always"
         stdDeviation="0.86939242"
         id="feGaussianBlur4477" />
    </filter>
    <linearGradient
       id="linearGradient3970">
      <stop
         offset="0"
         style="stop-color:#ff7300"
         id="stop3972" />
      <stop
         offset=".64833"
         style="stop-color:#ffdb00"
         id="stop4021" />
      <stop
         offset="1"
         style="stop-color:#ff6582"
         id="stop3974" />
    </linearGradient>
    <linearGradient
       inkscape:collect="always"
       id="linearGradient3917">
      <stop
         offset="0"
         style="stop-color:#ffc900"
         id="stop3919" />
      <stop
         offset="1"
         style="stop-color:#ffff00"
         id="stop3921" />
    </linearGradient>
    <linearGradient
       inkscape:collect="always"
       id="linearGradient3984">
      <stop
         offset="0"
         style="stop-color:#ffffff"
         id="stop3986" />
      <stop
         offset="1"
         style="stop-color:#ffffff;stop-opacity:0"
         id="stop3988" />
    </linearGradient>
    <filter
       id="filter3681"
       inkscape:label="filtre2" />
    <filter
       id="filter4047"
       inkscape:label="Ripple"
       inkscape:menu="Distort"
       inkscape:menu-tooltip="Horizontal rippling of edges"
       color-interpolation-filters="sRGB">
      <feTurbulence
         id="feTurbulence4049"
         numOctaves="1"
         baseFrequency="0.002 0.107" />
      <feColorMatrix
         id="feColorMatrix4051"
         values="2 0 0 0 0 0 0 0 0 0 0 0 0 0 0 0 0 0 0.5 0.5"
         result="result91" />
      <feDisplacementMap
         id="feDisplacementMap4053"
         in2="result91"
         yChannelSelector="A"
         xChannelSelector="R"
         scale="14.3"
         in="SourceGraphic" />
    </filter>
    <filter
       id="filter4153"
       inkscape:label="Evanescent"
       inkscape:menu="Blurs"
       inkscape:menu-tooltip="Blur the contents of objects, preserving the outline and adding progressive transparency at edges"
       color-interpolation-filters="sRGB">
      <feGaussianBlur
         id="feGaussianBlur4155"
         result="result6"
         stdDeviation="3"
         in="SourceGraphic" />
      <feColorMatrix
         id="feColorMatrix4157"
         values="1 0 0 0 0 0 1 0 0 0 0 0 1 0 0 0 0 0 1 0 "
         result="result7"
         in="SourceGraphic" />
      <feComposite
         id="feComposite4159"
         in2="result7"
         operator="in"
         in="result6" />
    </filter>
    <filter
       id="filter4161"
       inkscape:label="Evanescent"
       inkscape:menu="Blurs"
       inkscape:menu-tooltip="Blur the contents of objects, preserving the outline and adding progressive transparency at edges"
       color-interpolation-filters="sRGB">
      <feGaussianBlur
         id="feGaussianBlur4163"
         result="result6"
         stdDeviation="3"
         in="SourceGraphic" />
      <feColorMatrix
         id="feColorMatrix4165"
         values="1 0 0 0 0 0 1 0 0 0 0 0 1 0 0 0 0 0 1 0 "
         result="result7"
         in="SourceGraphic" />
      <feComposite
         id="feComposite4167"
         in2="result7"
         operator="in"
         in="result6" />
    </filter>
  </defs>
  <sodipodi:namedview
     id="base"
     bordercolor="#666666"
     inkscape:pageshadow="2"
     inkscape:window-y="73"
     pagecolor="#ffffff"
     inkscape:window-height="1222"
     inkscape:window-maximized="0"
     inkscape:zoom="1.0653401"
     inkscape:window-x="290"
     showgrid="false"
     borderopacity="1.0"
     inkscape:current-layer="layer1"
     inkscape:cx="112.28052"
     inkscape:cy="258.76014"
     inkscape:window-width="1325"
     inkscape:pageopacity="0.0"
     inkscape:document-units="px" />
  <g
     id="layer1"
     inkscape:label="Layer 1"
     inkscape:groupmode="layer"
     transform="translate(-200.31 -113.69)">
    <g
       id="g10634">
      <path
         id="path9996"
         sodipodi:nodetypes="csssc"
         style="color:#000000;fill:#e3dfff"
         d="m645.93 303.46c0 101.47-99.418 183.73-222.06 183.73s-218.07-82.353-222.06-183.73c-2.8469-72.489 43.208-69.206 228.7-66.765 174.79 2.3004 222.06-3.6545 215.41 66.765z" />
      <path
         id="path9996-4"
         sodipodi:nodetypes="csccscsssccc"
         style="stroke-linejoin:round;color:#000000;stroke:#000000;stroke-width:3;fill:none"
         d="m520.73 138.06c17.27-2.4132 27.618-5.4519 27.618-8.7812m-0.0658 0.14363c1.0534-6.7875-56.495-14.237-126.28-14.237-69.782 0-126.34 6.3008-126.34 14.094m0.7146 23.54c-41.992 20.823-94.569 78.204-94.569 150.65 0 101.47 99.42 183.72 222.06 183.72s222.06-82.246 222.06-183.72c0-72.746-48.645-134.31-97.205-152.8m-252.98-21.68c-0.32919 4.2954 10.257 6.9759 29.203 9.4435" />
      <path
         id="path10531"
         sodipodi:nodetypes="csscc"
         style="stroke-linejoin:round;color:#000000;stroke:#ccdbf4;stroke-linecap:round;stroke-width:3;fill:none"
         d="m639.59 275.23c-6.7619 21.197-84.993 32.617-207.14 31.912-144.12-0.83207-214.49-18.496-220.49-33.529-6.0338-15.138 12.748-43.922 217.34-36.465 173.51-0.1364 209.85 12.519 210.28 38.082z" />
      <path
         id="path10555"
         sodipodi:rx="104.88892"
         sodipodi:ry="16.453163"
         style="color:#000000;fill:url(#radialGradient10612)"
         sodipodi:type="arc"
         d="m 507.99143,464.16159 c 0,9.08683 -46.96037,16.45316 -104.88892,16.45316 -57.92855,0 -104.88893,-7.36633 -104.88893,-16.45316 0,-9.08683 46.96038,-16.45316 104.88893,-16.45316 57.92855,0 104.88892,7.36633 104.88892,16.45316 z"
         transform="matrix(.91677 0 0 1.4583 55.667 -213.43)"
         sodipodi:cy="464.16159"
         sodipodi:cx="403.10251" />
      <path
         id="path10565"
         sodipodi:nodetypes="cssc"
         style="stroke:#000000;stroke-width:3;fill:none"
         d="m315 463.94s-25.159 20.969-17.367 26.953c44.596 34.25 211.58 35.297 245.11 0.68555 6.5003-6.7102-15.558-25.582-15.558-25.582" />
      <path
         id="path10567"
         sodipodi:nodetypes="cc"
         style="stroke:#000000;stroke-width:1px;fill:none"
         d="m305.03 485.58c17.421 16.13 99.895 28.48 134.04 24.969" />
      <path
         id="path10572"
         sodipodi:nodetypes="cc"
         style="stroke:#000000;stroke-width:3;fill:none"
         d="m324.56 138.39c65.109 6.5191 131.97 5.4138 197.08-0.44966" />
      <path
         id="path10574"
         sodipodi:nodetypes="cc"
         style="stroke:#000000;stroke-width:3;fill:none"
         d="m547.83 130.63c-3.8438 6.5287-4.9491 17.366 1.6145 20.376" />
      <path
         id="path10574-2"
         sodipodi:nodetypes="cc"
         style="stroke:#000000;stroke-width:3;fill:none"
         d="m296.21 130.69c3.8438 6.5287 4.8174 19.777-0.75863 22.643" />
      <path
         id="path10598"
         sodipodi:nodetypes="cc"
         style="stroke:#000000;stroke-width:1px;fill:none"
         d="m305.09 151.67c74.185 11.006 133.53 5.8226 195.33 3.3187" />
      <path
         id="path10624"
         d="m16.896 218.09c0.1075 33.857 30.184 63.629 45.995 81.664 9.9592 11.36 44.695 12.17 37.547 1.8773-20.417-29.399-42.159-57.609-46.933-80.725-2.4755-11.986-36.647-15.055-36.608-2.816z"
         sodipodi:nodetypes="cssss"
         style="fill:url(#linearGradient10632)"
         transform="translate(200.31 113.69)" />
    </g>
    <path
       style="fill:#e3dfff;fill-opacity:1"
       d="m 161.81566,249.561 c -0.35928,-1.29067 -0.659,-11.53387 -0.66604,-22.76268 l -0.0128,-20.41602 31.21069,0.0936 c 17.16588,0.0515 32.26669,0.43176 33.55736,0.8451 2.03485,0.65167 1.04742,1.43514 -1.27881,1.01467 -1.07601,-0.1945 -3.36855,2.99367 -2.80656,3.90298 0.24282,0.3929 -0.20899,0.71435 -1.00402,0.71435 -0.79504,0 -1.71246,1.06357 -2.03871,2.36348 -0.37449,1.49206 -1.15978,2.27076 -2.12989,2.11201 -1.19741,-0.19596 -1.48421,0.42207 -1.299,2.79919 0.25578,3.28295 -0.71234,3.89831 -2.58436,1.64266 -0.64269,-0.7744 -1.53921,-1.408 -1.99227,-1.408 -1.05416,0 -0.64577,2.12945 0.58427,3.04647 1.49129,1.11179 -4.47421,0.22788 -6.74363,-0.9992 -2.87342,-1.55367 -3.11237,-1.43992 -3.11237,1.48161 0,2.41929 -2.64827,5.2268 -5.16268,5.47311 -2.29075,0.2244 -5.89442,2.24623 -6.41319,3.59812 -0.31234,0.81395 -1.34147,1.4799 -2.28695,1.4799 -0.94549,0 -2.22594,0.50688 -2.84546,1.12641 -0.87609,0.87608 -1.1264,0.87608 -1.1264,0 0,-0.61953 -0.68533,-1.12641 -1.52294,-1.12641 -1.19015,0 -1.28747,0.28373 -0.44538,1.29839 0.83434,1.00531 0.73523,1.42974 -0.4391,1.88037 -0.83417,0.3201 -2.00655,0.28835 -2.6053,-0.0705 -0.63998,-0.38364 -0.5801,-0.025 0.14532,0.87016 1.05007,1.29582 0.94227,1.67881 -0.7234,2.57026 -1.07654,0.57614 -2.37101,0.79187 -2.87661,0.47939 -0.5056,-0.31248 -0.91927,-0.13166 -0.91927,0.40182 0,1.13322 -5.15944,3.99385 -5.88846,3.26483 -0.27196,-0.27197 -0.43112,0.27288 -0.35368,1.21077 0.0989,1.1979 -0.60996,1.79195 -2.38264,1.99667 -1.45163,0.16765 -2.66382,0.96503 -2.85396,1.87734 -0.24152,1.15885 -0.50642,0.954 -0.98374,-0.76077 z m 8.46197,-7.2188 c -0.87274,-0.87273 -1.90142,-1.27217 -2.28596,-0.88763 -0.38454,0.38455 -0.0778,1.09213 0.68165,1.57243 2.28525,1.44523 3.30084,1.01173 1.60431,-0.6848 l 0,0 z m 18.72174,-11.73055 c -0.29965,-0.7488 -0.52207,-0.52638 -0.56711,0.56712 -0.0408,0.98951 0.18109,1.54391 0.493,1.232 0.31191,-0.31191 0.34526,-1.12151 0.0741,-1.79912 l 0,0 z m 4.05212,-2.64 c 0,-0.51626 -0.4224,-0.93866 -0.93867,-0.93866 -0.51627,0 -0.93867,0.4224 -0.93867,0.93866 0,0.51627 0.4224,0.93867 0.93867,0.93867 0.51627,0 0.93867,-0.4224 0.93867,-0.93867 z m 15.27121,-7.18638 c -0.63551,-0.25712 -1.90271,-0.27277 -2.816,-0.0348 -0.9133,0.23799 -0.39334,0.44836 1.15547,0.46749 1.5488,0.0191 2.29604,-0.17559 1.66053,-0.43272 l 0,0 z"
       id="path3090"
       inkscape:connector-curvature="0"
       transform="translate(200.31,113.69)" />
    <path
       style="fill:#e3dfff;fill-opacity:1"
       d="m 161.1368,288.04637 c 0,-11.27652 0.20766,-13.14135 1.4634,-13.14135 0.80487,0 1.18488,0.45065 0.84447,1.00145 -0.34041,0.55079 -0.0485,0.92315 0.6486,0.82745 2.78209,-0.3819 3.6142,0.1461 3.6142,2.29335 0,2.48184 1.08156,2.93737 9.13892,3.84918 4.88885,0.55325 12.51245,3.18562 9.42922,3.25584 -1.04168,0.0237 -1.42179,0.53556 -1.07291,1.44474 0.33041,0.86102 1.68642,1.38237 3.49055,1.34203 2.43695,-0.0545 2.62362,-0.1958 1.0729,-0.81214 -1.79369,-0.71293 -1.79824,-0.76226 -0.10203,-1.10736 0.97642,-0.19866 8.69919,-0.23577 17.16171,-0.0825 13.88126,0.25147 15.36042,0.43511 15.12071,1.87734 -0.20216,1.21636 0.34941,1.55328 2.30675,1.40905 1.72273,-0.12695 2.89635,0.41565 3.55303,1.64266 0.53932,1.00773 1.77097,1.83223 2.73701,1.83223 1.2943,0 1.62726,0.49394 1.2655,1.87733 -0.43132,1.64938 -0.0288,1.87734 3.31488,1.87734 3.22717,0 3.7843,0.28543 3.66439,1.87733 -0.13896,1.84474 -0.81433,1.87734 -38.89636,1.87734 l -38.75494,0 0,-13.14134 z m 39.32755,1.01816 c 0.89937,-0.56947 0.23648,-0.83043 -2.10939,-0.83043 -1.8815,0 -3.18595,0.38016 -2.89879,0.8448 0.66318,1.07305 3.30273,1.06548 5.00818,-0.0144 l 0,0 z"
       id="path3092"
       inkscape:connector-curvature="0"
       transform="translate(200.31,113.69)" />
    <path
       style="fill:#e3dfff;fill-opacity:1"
       d="m 263.45154,300.22412 c 0,-0.50256 0.4224,-0.91375 0.93867,-0.91375 1.71789,0 0.96822,-3.62752 -1.04043,-5.03443 -1.0885,-0.76241 -1.69717,-1.84236 -1.3526,-2.39989 0.56077,-0.90734 -0.61322,-1.42828 -2.53497,-1.12484 -0.3872,0.0611 -0.704,-0.70427 -0.704,-1.70089 0,-1.13286 -0.79163,-1.96453 -2.11201,-2.21884 -1.80656,-0.34796 -1.73779,-0.42528 0.47552,-0.53462 3.8689,-0.19113 21.66721,2.63141 22.62356,3.58776 0.45707,0.45707 1.38172,0.61972 2.05478,0.36145 0.67307,-0.25828 1.935,0.6159 2.8043,1.94262 0.8693,1.32673 1.98518,2.16215 2.47972,1.85651 0.49455,-0.30565 1.119,0.2849 1.38768,1.31232 0.46438,1.77578 1.21463,1.85809 15.19016,1.66654 9.74861,-0.13363 15.65039,-0.62023 17.51767,-1.44434 1.5488,-0.68356 3.872,-1.2854 5.16267,-1.33742 1.50038,-0.0605 2.5317,-0.77162 2.85976,-1.97193 0.42362,-1.54994 1.30991,-1.87734 5.08209,-1.87734 2.81956,0 4.71965,-0.44926 4.96246,-1.17333 0.21641,-0.64533 -0.16973,-1.1798 -0.85808,-1.18771 -1.03527,-0.0119 -1.03696,-0.15044 -0.01,-0.80172 0.683,-0.43304 2.67955,-0.62891 4.43677,-0.43526 2.46349,0.27147 3.07787,0.0469 2.68353,-0.98067 -0.72102,-1.87897 0.6695,-2.47653 6.04472,-2.59763 3.8185,-0.086 4.76923,-0.4462 5.16414,-1.95634 0.26621,-1.018 0.88395,-1.60373 1.37275,-1.30164 0.53368,0.32983 0.84017,-2.35124 0.76718,-6.71089 -0.0668,-3.99309 -0.49672,-7.11848 -0.95527,-6.94532 -0.87287,0.32962 -2.41254,-1.58722 -2.43724,-3.03429 -0.0184,-1.07663 20.92707,-0.0475 25.32964,1.2446 3.59491,1.05502 5.30668,0.96818 4.90107,-0.24865 -0.14389,-0.43166 0.57239,-1.00293 1.59173,-1.26949 1.34001,-0.35042 1.93246,-1.43084 2.13895,-3.9007 0.19776,-2.36551 0.79076,-3.51177 1.92826,-3.72734 1.52835,-0.28963 1.64267,1.29486 1.64267,22.767 l 0,23.07829 -64.76805,-0.037 c -41.35019,-0.0236 -64.76805,-0.36741 -64.76805,-0.95079 z m 58.88183,-3.35819 c -0.31192,-0.31191 -1.12152,-0.34526 -1.79912,-0.0741 -0.7488,0.29965 -0.52638,0.52207 0.56711,0.56711 0.98952,0.0408 1.54392,-0.18109 1.23201,-0.49301 l 0,10e-6 z m -54.41221,-7.58717 c -0.89745,-0.23494 -2.58705,-0.24347 -3.75467,-0.0189 -1.16762,0.22452 -0.43335,0.41674 1.63172,0.42716 2.06507,0.0104 3.02039,-0.17328 2.12295,-0.40822 z"
       id="path3094"
       inkscape:connector-curvature="0"
       transform="translate(200.31,113.69)" />
    <path
       style="fill:#e3dfff;fill-opacity:1"
       d="m 348.47864,224.09126 c 0.47821,-0.77376 0.0621,-0.94573 -1.37748,-0.56927 -1.72542,0.45121 -1.96618,0.23535 -1.47247,-1.32018 0.39779,-1.25334 0.18084,-1.80376 -0.66544,-1.68833 -3.54384,0.48337 -5.6909,-0.18692 -6.14358,-1.91794 -0.26849,-1.02673 -0.86553,-1.63356 -1.32675,-1.34851 -0.46122,0.28505 -1.10558,-0.17752 -1.43191,-1.02793 -0.47594,-1.24027 -0.756,-1.29847 -1.41547,-0.29416 -0.63394,0.96543 -1.4346,0.58269 -3.49767,-1.672 -2.12812,-2.32578 -3.01647,-2.73324 -4.34191,-1.99149 -1.45999,0.81706 -1.58969,0.62698 -1.04716,-1.53463 0.34057,-1.35695 0.22332,-2.46718 -0.26056,-2.46718 -0.48387,0 -1.54792,-0.25639 -2.36455,-0.56976 -0.81662,-0.31337 -1.48477,-0.13314 -1.48477,0.4005 0,0.53365 0.7392,1.16344 1.64267,1.39955 0.90347,0.2361 -0.89174,0.4725 -3.98934,0.52534 -6.60467,0.11266 -9.85601,-0.59758 -9.85601,-2.15301 0,-0.84323 10.24038,-1.17783 41.7707,-1.36485 l 41.7707,-0.24776 0,7.10633 c 0,6.48056 -0.16532,7.10633 -1.87733,7.10633 -1.55695,0 -1.87734,-0.62577 -1.87734,-3.66679 0,-3.1618 -0.24979,-3.60147 -1.81374,-3.19249 -1.43805,0.37606 -1.71308,0.0894 -1.32782,-1.38382 0.4058,-1.55178 -0.069,-1.9229 -2.8796,-2.25103 -4.99808,-0.5835 -9.93618,0.20127 -9.93618,1.57906 0,0.66269 -0.6336,1.44802 -1.40801,1.74518 -0.7744,0.29717 -1.408,0.12031 -1.408,-0.39301 0,-0.51332 -1.32871,-0.24621 -2.95269,0.59358 -2.27626,1.1771 -2.65258,1.71693 -1.64267,2.3564 1.25909,0.79726 1.11647,0.95244 -1.11231,1.21025 -0.55788,0.0645 -1.55485,0.85654 -2.21548,1.76001 -0.66063,0.90346 -2.10498,1.64266 -3.20967,1.64266 -1.10469,0 -2.00852,0.44733 -2.00852,0.99407 0,0.54673 0.4772,0.69914 1.06044,0.33867 0.62725,-0.38766 0.89405,-0.1562 0.65312,0.56659 -0.22403,0.67209 -1.22923,1.33501 -2.23378,1.47317 -1.00455,0.13815 -3.44154,0.50182 -5.41553,0.80815 -2.62806,0.40783 -3.40561,0.26011 -2.90389,-0.5517 l 0,0 z m 6.73858,-1.45788 c -0.89745,-0.23495 -2.58705,-0.24347 -3.75467,-0.0189 -1.16762,0.22453 -0.43334,0.41675 1.63173,0.42717 2.06507,0.0104 3.02039,-0.17328 2.12294,-0.40822 l 0,0 z"
       id="path3096"
       inkscape:connector-curvature="0"
       transform="translate(200.31,113.69)" />
    <path
       style="fill:#e3dfff;fill-opacity:1"
       d=""
       id="path3098"
       inkscape:connector-curvature="0"
       transform="translate(200.31,113.69)" />
    <path
       style="fill:#e3dfff;fill-opacity:1"
       d="m 203.54276,225.07337 c -0.1128,-0.18253 -0.56964,-0.33187 -1.01519,-0.33187 -0.99257,0 -1.06879,-0.51867 -0.11296,-0.76863 0.38698,-0.1012 0.5991,-0.34093 0.47677,-0.53885 -0.1212,-0.19611 0.0415,-0.45704 0.36155,-0.57985 0.33469,-0.12843 0.63735,-0.0569 0.71242,0.16828 0.0718,0.21536 0.35807,0.39157 0.63618,0.39157 0.32475,0 0.43359,0.18781 0.30422,0.52495 -0.1108,0.28872 -0.20144,0.73674 -0.20144,0.99561 0,0.53706 -0.85245,0.63892 -1.16155,0.13879 z"
       id="path3100"
       inkscape:connector-curvature="0"
       transform="translate(200.31,113.69)" />
    <path
       style="fill:#e3dfff;fill-opacity:1"
       d="m 204.91358,223.57323 c -0.10648,-0.2775 -0.63561,-0.59294 -1.17583,-0.70098 -0.54023,-0.10805 -1.06176,-0.4037 -1.15896,-0.65701 -0.22956,-0.59821 -0.26094,-0.60479 1.95578,0.41006 1.36414,0.62452 1.77416,0.95141 1.45054,1.15646 -0.64115,0.40623 -0.85132,0.36533 -1.07153,-0.20853 z"
       id="path3102"
       inkscape:connector-curvature="0"
       transform="translate(200.31,113.69)" />
    <path
       style="fill:#e3dfff;fill-opacity:1"
       d="m 202.08728,223.10559 c -0.28532,-0.17633 -0.31926,-0.34736 -0.0963,-0.48517 0.1894,-0.11706 0.44431,-0.0511 0.56647,0.14653 0.30481,0.49319 0.0624,0.66779 -0.47018,0.33864 z"
       id="path3104"
       inkscape:connector-curvature="0"
       transform="translate(200.31,113.69)" />
    <path
       style="fill:#e3dfff;fill-opacity:1"
       d=""
       id="path3106"
       inkscape:connector-curvature="0"
       transform="translate(200.31,113.69)" />
    <path
       style="fill:#e3dfff;fill-opacity:1"
       d="m 230.68925,208.87769 c 0.91167,-0.40765 1.21887,-0.72449 1.10964,-1.14448 -0.088,-0.33821 0.0337,-0.58077 0.29135,-0.58077 0.74889,0 0.71681,1.12899 -0.0495,1.74231 -0.39911,0.31943 -1.15013,0.5731 -1.66892,0.56371 -0.91886,-0.0166 -0.91064,-0.0316 0.31744,-0.58077 z"
       id="path3108"
       inkscape:connector-curvature="0"
       transform="translate(200.31,113.69)" />
    <path
       style="fill:#e3dfff;fill-opacity:1"
       d="m 229.08895,208.79927 c -0.10856,-0.17564 0.0443,-0.31935 0.3396,-0.31935 0.29534,0 0.45435,-0.1337 0.35336,-0.2971 -0.21114,-0.34163 0.64251,-0.75356 0.94167,-0.4544 0.36878,0.36878 0.20154,0.64352 -0.61944,1.01758 -0.51285,0.23367 -0.89142,0.25354 -1.01519,0.0533 z"
       id="path3110"
       inkscape:connector-curvature="0"
       transform="translate(200.31,113.69)" />
    <path
       style="fill:#e3dfff;fill-opacity:1"
       d="m 230.42416,206.82057 c -0.12684,-0.20522 0.40395,-0.31924 1.39085,-0.29879 1.29501,0.0268 1.43951,0.0832 0.7663,0.29879 -1.19024,0.38118 -1.92157,0.38118 -2.15715,0 z"
       id="path3112"
       inkscape:connector-curvature="0"
       transform="translate(200.31,113.69)" />
    <path
       style="fill:#e3dfff;fill-opacity:1"
       d=""
       id="path3114"
       inkscape:connector-curvature="0"
       transform="translate(200.31,113.69)" />
    <path
       style="fill:#e3dfff;fill-opacity:1"
       d=""
       id="path3116"
       inkscape:connector-curvature="0"
       transform="translate(200.31,113.69)" />
    <path
       style="fill:#e3dfff;fill-opacity:1"
       d=""
       id="path3118"
       inkscape:connector-curvature="0"
       transform="translate(200.31,113.69)" />
    <path
       style="fill:#e3dfff;fill-opacity:1"
       d="m 230.34119,206.25994 c 0.31942,-0.0835 0.84212,-0.0835 1.16154,0 0.31942,0.0835 0.0581,0.15177 -0.58077,0.15177 -0.63885,0 -0.90019,-0.0683 -0.58077,-0.15177 z"
       id="path3120"
       inkscape:connector-curvature="0"
       transform="translate(200.31,113.69)" />
    <rect
       style="fill:#e3dfff;fill-opacity:1"
       id="rect3122"
       width="10.28794"
       height="2.3230832"
       x="197.79395"
       y="222.6839"
       transform="translate(200.31,113.69)" />
    <rect
       style="fill:#e3dfff;fill-opacity:1"
       id="rect3124"
       width="24.558308"
       height="8.2967262"
       x="189.16534"
       y="215.71465"
       transform="translate(200.31,113.69)" />
    <rect
       style="fill:#e3dfff;fill-opacity:1"
       id="rect3126"
       width="16.925322"
       height="16.593452"
       x="158.96527"
       y="227.66194"
       transform="translate(200.31,113.69)" />
    <rect
       style="fill:#e3dfff;fill-opacity:1"
       id="rect3128"
       width="29.204475"
       height="11.615417"
       x="134.73883"
       y="238.28174"
       transform="translate(200.31,113.69)" />
    <g
       transform="matrix(0.58651431,0,0,0.55438991,376.00616,258.77218)"
       inkscape:label="Capa 1"
       id="layer1-3"
       style="filter:url(#filter4161)">
      <g
         transform="matrix(-5.9727,0,0,5.9727,1747.7,-1561.1)"
         inkscape:export-filename="D:\2007\Diseños InkScape\tarjeta2.png"
         inkscape:export-xdpi="150"
         inkscape:export-ydpi="150"
         id="g3720">
        <g
           transform="matrix(1.1556,0,0,1.1556,207.76,165.57)"
           style="fill:#000000;filter:url(#filter4475)"
           id="g3722">
          <path
             d="m 22.633,104.12 c -1.168,0 -2.224,0.18 -3.164,0.51 5.048,1.1 8.453,5.74 11.415,9.4 0,4.72 -6.469,7.89 -12.808,7.89 -0.147,0 -0.292,-0.01 -0.437,-0.01 1.579,0.84 3.557,1.31 5.876,1.31 6.325,0 12.783,-3.45 12.783,-8.6 -3.379,-4.56 -7.339,-10.5 -13.665,-10.5 z"
             style="fill:#000000"
             id="path3724"
             inkscape:connector-curvature="0" />
          <path
             d="m 39.202,119.69 c 0.176,0 0.147,1.77 0.147,2.35 0,0.86 -0.844,1.38 -1.322,1.62 -0.623,0.31 -0.861,0.4 -1.175,1.02 -0.102,0.21 2.171,0.05 2.35,0 0.943,-0.23 1.885,-0.36 2.792,-0.58 0.76,-0.19 1.423,-0.84 2.203,-1.03 0.572,-0.14 0.912,-0.8 1.175,-1.32 0.426,-0.85 -1.868,-0.36 -2.791,-0.59 -0.196,-0.05 -0.391,-0.1 -0.587,-0.15 -0.699,-0.17 -1.384,-1.01 -2.057,-1.17 -0.242,-0.06 -0.49,-0.1 -0.735,-0.15 z"
             style="fill:#000000;fill-rule:evenodd"
             id="path3726"
             inkscape:connector-curvature="0" />
          <path
             d="m 56.882,121.5 c -1.068,-0.26 -0.985,2.02 -1.763,2.79 -0.569,0.57 -0.873,1.32 -1.469,1.91 -1.407,2.98 -7.265,3.55 -10.578,3.97 0.776,-0.91 2.163,-0.81 3.232,-1.03 1.669,-0.57 3.407,-1.26 4.701,-2.5 0.937,-0.93 -0.734,-0.4 -1.175,-0.29 -0.531,0.13 -1.085,0.43 -1.616,0.29 -0.157,-0.03 1.604,-1.11 2.644,-2.49 0.392,-0.53 -1.325,0.73 -1.909,0.44 -0.657,-0.33 0.993,-1.11 1.322,-1.77 0.379,-0.75 0.654,-0.58 1.763,-0.58 h 2.203 c 1.14,0 1.693,-0.26 2.645,-0.74 z"
             style="fill:#000000;fill-rule:evenodd"
             sodipodi:nodetypes="csccccsssssssc"
             id="path3728"
             inkscape:connector-curvature="0" />
          <path
             d="m 58.938,107.06 c -0.346,-0.68 -1.242,-1.45 -2.056,-2.06 -1.138,-0.85 -2.115,-1.66 -3.232,-2.5 -1.753,-1.93 0.102,0.42 0.587,1.76 0.072,0.44 -1.544,-1.25 -2.056,-1.76 -1.331,-1.06 -2.248,-1.69 -3.967,-2.937 -0.84,-0.168 0.939,1.437 1.322,2.207 0.375,0.75 0.588,1.08 0.588,1.76 0,0.9 -1.249,-1.36 -2.057,-1.76 -0.714,-0.36 -1.175,-1.4 -1.175,-0.15 0,1.96 -0.101,1.44 -1.763,1.03 -1.123,-0.28 -2.37,-0.38 -0.734,0.44 0.136,0.07 -1.959,0.15 -2.498,0.15 -0.018,0 -0.981,0.58 -1.469,0.58 -0.628,0 -0.564,0.74 -1.91,0.74 -0.945,0 -0.296,0.88 -1.616,0.88 -1.104,0 -1.028,0.44 -1.762,1.17 -0.959,0.96 -1.277,0.63 -0.588,2.36 0.349,0.87 0.294,1.64 0.294,2.64 0,1.54 -0.743,1.14 0.881,0.73 0.903,-0.22 1.847,-1.25 2.351,-1.76 0.59,-0.59 1.069,-1.21 1.616,-1.76 0.706,-0.71 2.121,-0.62 2.938,-1.03 0.958,-0.48 2.632,-0.03 3.672,-0.29 1.296,-0.33 2.773,-0.15 4.114,-0.15 h 3.525 3.526 c 0.635,0 0.8,-0.03 1.469,-0.29 z"
             style="fill:#000000;fill-rule:evenodd"
             sodipodi:nodetypes="csccccsssssssssssssssssssssc"
             id="path3730"
             inkscape:connector-curvature="0" />
          <path
             d="m 34.779,112.48 c 1.923,-3.59 8.506,-6.48 16.3,-6.94 9.25,-0.55 15.301,4.55 18.092,8.55 0.094,0.14 -3.323,2.05 -3.237,2.18 0.094,0.15 3.69,-1.49 3.775,-1.35 -1.028,4.67 -9.319,7.9 -18.63,7.9 -7.012,0 -13.028,-2.08 -15.572,-5.04"
             style="fill:#000000"
             sodipodi:nodetypes="ccssscss"
             id="path3732"
             inkscape:connector-curvature="0" />
          <path
             sodipodi:cx="371.87283"
             sodipodi:cy="198.63071"
             transform="matrix(-0.29561,0,0,0.3534,173.86,43.477)"
             d="m 378.64119,198.63071 c 0,2.02923 -3.0303,3.67425 -6.76836,3.67425 -3.73806,0 -6.76835,-1.64502 -6.76835,-3.67425 0,-2.02924 3.03029,-3.67425 6.76835,-3.67425 3.73806,0 6.76836,1.64501 6.76836,3.67425 z"
             sodipodi:type="arc"
             style="fill:#000000"
             sodipodi:ry="3.6742506"
             sodipodi:rx="6.7683563"
             id="path3734" />
          <path
             d="m 52.104,106.07 c -0.294,0.01 -0.59,0.02 -0.89,0.03 -9.017,0.48 -16.367,3.91 -16.367,7.79 0,0.71 0.253,1.39 0.705,2.03 3.444,-1.44 9.605,-2.4 16.627,-2.4 6.785,0 12.763,0.9 16.266,2.26 0.411,-0.52 0.706,-1.06 0.848,-1.63 -2.347,-3.4 -8.102,-8.24 -17.189,-8.08 z"
             style="fill:#000000"
             id="path3736"
             inkscape:connector-curvature="0" />
          <path
             sodipodi:cx="371.87283"
             sodipodi:cy="198.63071"
             transform="matrix(-0.18919,0,0,0.22618,134.39,68.774)"
             d="m 378.64119,198.63071 c 0,2.02923 -3.0303,3.67425 -6.76836,3.67425 -3.73806,0 -6.76835,-1.64502 -6.76835,-3.67425 0,-2.02924 3.03029,-3.67425 6.76835,-3.67425 3.73806,0 6.76836,1.64501 6.76836,3.67425 z"
             sodipodi:type="arc"
             style="fill:#000000"
             sodipodi:ry="3.6742506"
             sodipodi:rx="6.7683563"
             id="path3738" />
          <path
             d="m 69.398,115.33 c -0.353,2.4 -3.198,4.06 -6.392,4.06 -3.194,0 -5.786,-1.89 -5.786,-4.21 0,-2.33 2.598,-4.39 5.786,-4.67 3.396,-0.31 5.535,2.72 6.392,4.82 z"
             style="fill:#000000"
             sodipodi:nodetypes="csssc"
             id="path3740"
             inkscape:connector-curvature="0" />
          <path
             d="m 22.633,104.31 c -1.168,0 -2.224,0.18 -3.164,0.51 2.42,0.53 4.456,1.88 6.253,3.53 4.876,0.89 8.519,4.4 8.519,8.6 0,1.15 -0.277,2.23 -0.772,3.24 1.732,-1.42 2.829,-3.25 2.829,-5.37 -3.379,-4.57 -7.339,-10.51 -13.665,-10.51 z"
             style="fill:#000000"
             id="path3742"
             inkscape:connector-curvature="0" />
        </g>
        <g
           transform="matrix(1.1556,0,0,1.1556,207.76,163.57)"
           id="g3744">
          <path
             d="m 22.633,104.12 c -1.168,0 -2.224,0.18 -3.164,0.51 5.048,1.1 8.453,5.74 11.415,9.4 0,4.72 -6.469,7.89 -12.808,7.89 -0.147,0 -0.292,-0.01 -0.437,-0.01 1.579,0.84 3.557,1.31 5.876,1.31 6.325,0 12.783,-3.45 12.783,-8.6 -3.379,-4.56 -7.339,-10.5 -13.665,-10.5 z"
             style="fill:url(#radialGradient3939)"
             id="path3746"
             inkscape:connector-curvature="0" />
          <path
             d="m 39.202,119.69 c 0.176,0 0.147,1.77 0.147,2.35 0,0.86 -0.844,1.38 -1.322,1.62 -0.623,0.31 -0.861,0.4 -1.175,1.02 -0.102,0.21 2.171,0.05 2.35,0 0.943,-0.23 1.885,-0.36 2.792,-0.58 0.76,-0.19 1.423,-0.84 2.203,-1.03 0.572,-0.14 0.912,-0.8 1.175,-1.32 0.426,-0.85 -1.868,-0.36 -2.791,-0.59 -0.196,-0.05 -0.391,-0.1 -0.587,-0.15 -0.699,-0.17 -1.384,-1.01 -2.057,-1.17 -0.242,-0.06 -0.49,-0.1 -0.735,-0.15 z"
             style="fill:url(#radialGradient3941);fill-rule:evenodd"
             id="path3748"
             inkscape:connector-curvature="0" />
          <path
             d="m 56.882,121.5 c -1.068,-0.26 -0.985,2.02 -1.763,2.79 -0.569,0.57 -0.873,1.32 -1.469,1.91 -1.407,2.98 -7.265,3.55 -10.578,3.97 0.776,-0.91 2.163,-0.81 3.232,-1.03 1.669,-0.57 3.407,-1.26 4.701,-2.5 0.937,-0.93 -0.734,-0.4 -1.175,-0.29 -0.531,0.13 -1.085,0.43 -1.616,0.29 -0.157,-0.03 1.604,-1.11 2.644,-2.49 0.392,-0.53 -1.325,0.73 -1.909,0.44 -0.657,-0.33 0.993,-1.11 1.322,-1.77 0.379,-0.75 0.654,-0.58 1.763,-0.58 h 2.203 c 1.14,0 1.693,-0.26 2.645,-0.74 z"
             style="fill:url(#linearGradient3943);fill-rule:evenodd"
             sodipodi:nodetypes="csccccsssssssc"
             id="path3750"
             inkscape:connector-curvature="0" />
          <path
             d="m 58.938,107.06 c -0.346,-0.68 -1.242,-1.45 -2.056,-2.06 -1.138,-0.85 -2.115,-1.66 -3.232,-2.5 -1.753,-1.93 0.102,0.42 0.587,1.76 0.072,0.44 -1.544,-1.25 -2.056,-1.76 -1.331,-1.06 -2.248,-1.69 -3.967,-2.937 -0.84,-0.168 0.939,1.437 1.322,2.207 0.375,0.75 0.588,1.08 0.588,1.76 0,0.9 -1.249,-1.36 -2.057,-1.76 -0.714,-0.36 -1.175,-1.4 -1.175,-0.15 0,1.96 -0.101,1.44 -1.763,1.03 -1.123,-0.28 -2.37,-0.38 -0.734,0.44 0.136,0.07 -1.959,0.15 -2.498,0.15 -0.018,0 -0.981,0.58 -1.469,0.58 -0.628,0 -0.564,0.74 -1.91,0.74 -0.945,0 -0.296,0.88 -1.616,0.88 -1.104,0 -1.028,0.44 -1.762,1.17 -0.959,0.96 -1.277,0.63 -0.588,2.36 0.349,0.87 0.294,1.64 0.294,2.64 0,1.54 -0.743,1.14 0.881,0.73 0.903,-0.22 1.847,-1.25 2.351,-1.76 0.59,-0.59 1.069,-1.21 1.616,-1.76 0.706,-0.71 2.121,-0.62 2.938,-1.03 0.958,-0.48 2.632,-0.03 3.672,-0.29 1.296,-0.33 2.773,-0.15 4.114,-0.15 h 3.525 3.526 c 0.635,0 0.8,-0.03 1.469,-0.29 z"
             style="fill:url(#linearGradient3945);fill-rule:evenodd"
             sodipodi:nodetypes="csccccsssssssssssssssssssssc"
             id="path3752"
             inkscape:connector-curvature="0" />
          <path
             d="m 34.779,112.48 c 1.923,-3.59 8.506,-6.48 16.3,-6.94 9.25,-0.55 15.301,4.55 18.092,8.55 0.094,0.14 -3.323,2.05 -3.237,2.18 0.094,0.15 3.69,-1.49 3.775,-1.35 -1.028,4.67 -9.319,7.9 -18.63,7.9 -7.012,0 -13.028,-2.08 -15.572,-5.04"
             style="fill:url(#linearGradient3947);stroke:#ffa500;stroke-width:0.28549999;stroke-linecap:round"
             sodipodi:nodetypes="ccssscss"
             id="path3754"
             inkscape:connector-curvature="0" />
          <path
             sodipodi:cx="371.87283"
             sodipodi:cy="198.63071"
             transform="matrix(-0.29561,0,0,0.3534,173.86,43.477)"
             d="m 378.64119,198.63071 c 0,2.02923 -3.0303,3.67425 -6.76836,3.67425 -3.73806,0 -6.76835,-1.64502 -6.76835,-3.67425 0,-2.02924 3.03029,-3.67425 6.76835,-3.67425 3.73806,0 6.76836,1.64501 6.76836,3.67425 z"
             sodipodi:type="arc"
             style="fill:#000000"
             sodipodi:ry="3.6742506"
             sodipodi:rx="6.7683563"
             id="path3756" />
          <path
             d="m 52.104,106.07 c -0.294,0.01 -0.59,0.02 -0.89,0.03 -9.017,0.48 -16.367,3.91 -16.367,7.79 0,0.71 0.253,1.39 0.705,2.03 3.444,-1.44 9.605,-2.4 16.627,-2.4 6.785,0 12.763,0.9 16.266,2.26 0.411,-0.52 0.706,-1.06 0.848,-1.63 -2.347,-3.4 -8.102,-8.24 -17.189,-8.08 z"
             style="fill:url(#linearGradient3949)"
             id="path3758"
             inkscape:connector-curvature="0" />
          <path
             sodipodi:cx="371.87283"
             sodipodi:cy="198.63071"
             transform="matrix(-0.18919,0,0,0.22618,134.39,68.774)"
             d="m 378.64119,198.63071 c 0,2.02923 -3.0303,3.67425 -6.76836,3.67425 -3.73806,0 -6.76835,-1.64502 -6.76835,-3.67425 0,-2.02924 3.03029,-3.67425 6.76835,-3.67425 3.73806,0 6.76836,1.64501 6.76836,3.67425 z"
             sodipodi:type="arc"
             style="fill:#000000;stroke:#fff786;stroke-width:1.77170002;stroke-linecap:round"
             sodipodi:ry="3.6742506"
             sodipodi:rx="6.7683563"
             id="path3760" />
          <path
             d="m 69.398,115.33 c -0.353,2.4 -3.198,4.06 -6.392,4.06 -3.194,0 -5.786,-1.89 -5.786,-4.21 0,-2.33 2.598,-4.39 5.786,-4.67 3.396,-0.31 5.535,2.72 6.392,4.82 z"
             style="fill:url(#linearGradient3951)"
             sodipodi:nodetypes="csssc"
             id="path3762"
             inkscape:connector-curvature="0" />
          <path
             d="m 22.633,104.31 c -1.168,0 -2.224,0.18 -3.164,0.51 2.42,0.53 4.456,1.88 6.253,3.53 4.876,0.89 8.519,4.4 8.519,8.6 0,1.15 -0.277,2.23 -0.772,3.24 1.732,-1.42 2.829,-3.25 2.829,-5.37 -3.379,-4.57 -7.339,-10.51 -13.665,-10.51 z"
             style="fill:url(#linearGradient3953)"
             id="path3764"
             inkscape:connector-curvature="0" />
        </g>
      </g>
    </g>
    <g
       id="g3568"
       transform="translate(23.466685,290.51756)"
       style="filter:url(#filter4153)">
      <path
         d="m 324.59817,107.46844 h 2.60577 c 0,7.50522 -1.24084,13.04185 -3.84662,16.48687 -2.3576,3.44501 -5.45971,5.16752 -9.30633,5.16752 -2.97803,0 -5.95606,-1.10732 -8.68591,-3.32198 -2.85395,-2.33769 -5.33564,-8.4895 -7.56916,-18.33241 l -6.3283,-28.052281 -21.5907,48.722381 h -13.77338 l 31.1452,-66.439611 c -1.73718,-8.612542 -3.72253,-15.010431 -5.95605,-19.07063 -2.3576,-4.183234 -5.21155,-6.274852 -8.68591,-6.274852 -2.72986,0 -5.21155,1.107327 -7.32099,3.198944 -1.98535,2.091618 -3.10211,5.290562 -3.35028,9.71987 h -2.60577 c 0.12409,-7.136107 1.48901,-12.795778 4.21887,-16.979012 2.72986,-4.306272 6.08014,-6.397889 10.17493,-6.397889 2.60577,0 5.08746,1.107327 7.44507,3.198944 2.3576,2.091618 4.46704,5.782707 6.08013,10.950233 1.73719,5.167525 4.46704,15.871685 8.06549,32.112479 l 5.21155,22.884756 c 2.10944,9.473798 4.21887,15.748648 6.57648,18.947598 2.23352,3.19894 5.08746,4.79841 8.18957,4.79841 5.45972,0 8.56183,-3.81412 9.30634,-11.31934"
         id="flowRoot1306"
         inkscape:connector-curvature="0" />
      <text
         xml:space="preserve"
         style="font-size:106.18778229px;font-style:normal;font-weight:normal;line-height:125%;letter-spacing:0px;word-spacing:0px;fill:#0000ff;fill-opacity:1;stroke:none;font-family:Sans"
         x="238.47983"
         y="105.62708"
         id="text3540"
         sodipodi:linespacing="125%"
         transform="scale(0.93330595,1.07146)"><tspan
           sodipodi:role="line"
           id="tspan3542"
           x="238.47983"
           y="105.62708">(</tspan></text>
      <text
         xml:space="preserve"
         style="font-size:106.18778229px;font-style:normal;font-weight:normal;line-height:125%;letter-spacing:0px;word-spacing:0px;fill:#0000ff;fill-opacity:1;stroke:none;font-family:Sans"
         x="-386.5108"
         y="-39.052319"
         id="text3540-8"
         sodipodi:linespacing="125%"
         transform="scale(-0.93330595,-1.07146)"><tspan
           sodipodi:role="line"
           id="tspan3542-7"
           x="-386.5108"
           y="-39.052319">(</tspan></text>
    </g>
    <text
       xml:space="preserve"
       style="font-size:40px;font-style:normal;font-variant:normal;font-weight:normal;font-stretch:normal;text-align:start;line-height:125%;letter-spacing:0px;word-spacing:0px;writing-mode:lr-tb;text-anchor:start;fill:#000080;fill-opacity:1;stroke:none;filter:url(#filter4047);font-family:Courier 10 Pitch;-inkscape-font-specification:Courier 10 Pitch"
       x="289.95273"
       y="275.30042"
       id="text3575"
       sodipodi:linespacing="125%"
       transform="matrix(1.16929,0,0,1.3994604,-76.29348,-103.22211)"><tspan
         sodipodi:role="line"
         id="tspan3577"
         x="289.95273"
         y="275.30042">Common Lisp</tspan></text>
  </g>
  <metadata
     id="metadata24">
    <rdf:RDF>
      <cc:Work>
        <dc:format>image/svg+xml</dc:format>
        <dc:type
           rdf:resource="http://purl.org/dc/dcmitype/StillImage" />
        <cc:license
           rdf:resource="http://creativecommons.org/licenses/publicdomain/" />
        <dc:publisher>
          <cc:Agent
             rdf:about="http://openclipart.org/">
            <dc:title>Openclipart</dc:title>
          </cc:Agent>
        </dc:publisher>
        <dc:title>Fishbowl</dc:title>
        <dc:date>2010-05-11T04:48:20</dc:date>
        <dc:description>A simple fishbowl, with water only. Drawn in Inkscape.</dc:description>
        <dc:source>https://openclipart.org/detail/59905/fishbowl-by-j_alves</dc:source>
        <dc:creator>
          <cc:Agent>
            <dc:title>J_Alves</dc:title>
          </cc:Agent>
        </dc:creator>
        <dc:subject>
          <rdf:Bag>
            <rdf:li>aquarium</rdf:li>
            <rdf:li>fish</rdf:li>
            <rdf:li>fish tank</rdf:li>
            <rdf:li>fishbowl</rdf:li>
            <rdf:li>pet</rdf:li>
          </rdf:Bag>
        </dc:subject>
      </cc:Work>
      <cc:License
         rdf:about="http://creativecommons.org/licenses/publicdomain/">
        <cc:permits
           rdf:resource="http://creativecommons.org/ns#Reproduction" />
        <cc:permits
           rdf:resource="http://creativecommons.org/ns#Distribution" />
        <cc:permits
           rdf:resource="http://creativecommons.org/ns#DerivativeWorks" />
      </cc:License>
    </rdf:RDF>
  </metadata>
</svg>
